HIERARCHY
ROOT Hips
{
	OFFSET 0.000000 0.000000 0.000000 
	CHANNELS 6 Xposition Yposition Zposition Yrotation Zrotation Xrotation 
	JOINT Lumbar
	{
		OFFSET 0.000000 0.000000 0.000000 
		CHANNELS 3 Zrotation Xrotation Yrotation
		JOINT Neck
		{
			OFFSET 0.000000 0.445665 0.000000 
			CHANNELS 3 Zrotation Xrotation Yrotation
			End Site
			{
				OFFSET 0.000000 0.227535 0.000000 
			}
		}
		JOINT RightShoulder
		{
			OFFSET 0.019635 0.377685 0.194865 
			CHANNELS 3 Zrotation Xrotation Yrotation
			JOINT RightElbow
			{
				OFFSET 0.000000 -0.243375 0.000000 
				CHANNELS 2 Zrotation Yrotation
				JOINT RightWrist
				{
					OFFSET 0.000000 -0.264825 0.000000 
					CHANNELS 2 Zrotation Xrotation
					End Site
					{
						OFFSET 0.006600 -0.176220 0.000990 
					}
				}
			}
		}
		JOINT LeftShoulder
		{
			OFFSET 0.019635 0.377685 -0.194865 
			CHANNELS 3 Zrotation Xrotation Yrotation
			JOINT LeftElbow
			{
				OFFSET 0.000000 -0.243375 0.000000 
				CHANNELS 2 Zrotation Yrotation
				JOINT LeftWrist
				{
					OFFSET 0.000000 -0.264825 0.000000 
					CHANNELS 2 Zrotation Xrotation
					End Site
					{
						OFFSET 0.006600 -0.176220 -0.000990 
					}
				}
			}
		}
	}
	JOINT RightHip
	{
		OFFSET 0.052140 -0.069960 0.075570 
		CHANNELS 3 Zrotation Xrotation Yrotation
		JOINT RightKnee
		{
			OFFSET 0.000000 -0.402270 0.000000 
			CHANNELS 1 Zrotation
			JOINT RightAnkle
			{
				OFFSET 0.000000 -0.404085 0.000000 
				CHANNELS 3 Zrotation Xrotation Yrotation
				End Site
				{
					OFFSET 0.204105 -0.089430 0.008415 
				}
			}
		}
	}
	JOINT LeftHip
	{
		OFFSET 0.052140 -0.069960 -0.075570 
		CHANNELS 3 Zrotation Xrotation Yrotation
		JOINT LeftKnee
		{
			OFFSET 0.000000 -0.402270 0.000000 
			CHANNELS 1 Zrotation
			JOINT LeftAnkle
			{
				OFFSET 0.000000 -0.404085 0.000000 
				CHANNELS 3 Zrotation Xrotation Yrotation
				End Site
				{
					OFFSET 0.204105 -0.089430 -0.008415 
				}
			}
		}
	}
}
MOTION
Frames: 11
Frame Time: 0.02
0.03134 -0.00207 0.03083 -170.49705 -38.96947 -3.92729 39.98138 1.08435 10.76484 -2.20698 6.72654 -0.83064 50.59313 -45.46895 64.14546 24.37953 111.86991 11.26958 4.04925 18.07235 25.2655 -40.94422 93.51296 -93.39696 7.11975 -5.90361 44.90897 -3.22802 -6.75815 -22.2137 -8.82698 -5.49636 -3.71619 53.21915 7.71031 -3.61992 -28.46973 -7.24167 2.47952 1.92425
0.03173 -0.00185 0.03244 -170.44608 -38.9577 -3.91558 39.87843 1.01694 11.39596 -2.22651 7.1386 -0.83064 53.43415 -44.15764 64.18873 24.58789 107.15097 8.6374 4.07853 18.12576 25.01252 -41.19765 93.11518 -93.86956 6.48944 -5.64956 44.91514 -3.35036 -6.782 -22.25595 -8.83999 -5.4986 -3.71451 53.23294 7.64171 -3.39214 -28.44822 -7.23975 2.44246 1.90444
0.03209 -0.00156 0.03409 -170.73951 -38.98538 -3.91149 39.84649 0.96845 11.95483 -2.33341 7.52944 -0.83064 56.20153 -42.47309 64.16388 26.04135 100.65651 6.13815 3.82219 17.93764 24.8483 -41.10488 92.82896 -94.34377 5.86306 -4.93434 45.02761 -3.5038 -6.82434 -22.32448 -8.81877 -5.47613 -3.6958 53.22436 7.60175 -3.05036 -28.42072 -7.23767 2.42912 1.89638
0.03246 -0.00131 0.03571 -170.88076 -38.99441 -3.90234 39.78039 0.91009 12.52639 -2.40488 7.92035 -0.83064 58.94379 -40.966 64.17057 27.02645 95.1669 3.65588 3.67395 17.8489 24.65862 -41.14697 92.50533 -94.77935 5.2521 -4.45551 45.09081 -3.64321 -6.85304 -22.38057 -8.81256 -5.46441 -3.68468 53.22364 7.54051 -2.79046 -28.39715 -7.23564 2.40916 1.88536
0.03287 -0.00103 0.03737 -171.00904 -39.00301 -3.89864 39.7198 0.85724 13.18268 -2.46005 8.35415 -0.83064 61.96244 -39.41341 64.17341 27.61955 88.83508 0.80185 3.6184 17.80373 24.40643 -41.28508 92.11872 -95.38283 4.55673 -3.8818 45.15536 -3.78329 -6.90153 -22.43963 -8.80832 -5.45407 -3.67378 53.227 7.50991 -2.41361 -28.36783 -7.23403 2.37347 1.86538
0.03319 -0.00079 0.03897 -171.24298 -39.02432 -3.88614 39.6663 0.79735 13.64478 -2.56875 8.69143 -0.83064 64.36865 -37.87951 64.16641 29.31907 83.83468 -1.22302 3.3054 17.61017 24.30552 -41.14004 91.89313 -95.63701 4.04404 -3.38633 45.24424 -3.92864 -6.91409 -22.49816 -8.79215 -5.43535 -3.65861 53.22018 7.42558 -2.24353 -28.3495 -7.23137 2.37459 1.86595
0.03331 -0.00068 0.04039 -171.69753 -39.05725 -3.84469 39.60536 0.71359 13.59628 -2.81006 8.78181 -0.83064 65.19975 -36.39484 64.17497 33.74307 82.99213 -1.06298 2.30322 17.07129 24.59851 -40.30459 92.07583 -94.89146 4.01897 -3.25618 45.36329 -4.08451 -6.82323 -22.55189 -8.74947 -5.39814 -3.63508 53.17236 7.16491 -2.74725 -28.36075 -7.22599 2.48271 1.92664
0.03334 -0.00062 0.04176 -172.24309 -39.10429 -3.79487 39.55092 0.62209 13.3535 -3.10088 8.77284 -0.83064 65.39493 -34.96154 64.17069 39.23522 83.54446 -0.05394 1.05989 16.39108 25.04043 -39.19545 92.41896 -93.80147 4.18291 -3.21283 45.50512 -4.24384 -6.69605 -22.60352 -8.69639 -5.35369 -3.60805 53.11888 6.85308 -3.44988 -28.38376 -7.2195 2.62499 2.00645
0.03341 -0.00054 0.04315 -172.73837 -39.15459 -3.75082 39.50035 0.5339 13.19462 -3.36488 8.79982 -0.83064 65.81546 -33.56452 64.15699 44.25763 83.42773 0.61888 -0.04213 15.77143 25.41622 -38.20627 92.6958 -92.88755 4.271 -3.10232 45.6444 -4.39915 -6.58536 -22.65405 -8.64936 -5.31351 -3.58315 53.08084 6.57918 -4.01015 -28.40287 -7.21334 2.74406 2.07327
0.0335 -0.00043 0.04455 -173.28516 -39.16638 -3.69849 39.42433 0.447 13.05176 -3.65033 8.86525 -0.83064 66.50667 -31.89577 64.20927 49.27469 83.39337 1.08528 -1.28751 15.15648 25.79093 -37.22101 92.94973 -91.8822 4.31292 -3.08854 45.75581 -4.56588 -6.47447 -22.71422 -8.59542 -5.26825 -3.55533 52.98837 6.24566 -4.78044 -28.41555 -7.20785 2.89591 2.15838
0.03351 -0.00039 0.04593 -173.73957 -39.25996 -3.66157 39.40077 0.35564 12.83034 -3.9015 8.82685 -0.83064 66.47874 -30.81876 64.11696 54.51889 83.54672 2.18276 -2.28839 14.50425 26.19911 -36.17044 93.2865 -90.99697 4.50055 -2.90544 45.92755 -4.70927 -6.35623 -22.75342 -8.55401 -5.23227 -3.53305 53.00726 6.02207 -5.16883 -28.44464 -7.20078 2.98794 2.21015
